<svg width="64" height="64" viewBox="0 0 64 64" fill="none" xmlns="http://www.w3.org/2000/svg">
<path d="M48.5001 45.7H18.2001C17.7001 45.7 17.3001 45.5 17.1001 45.1C16.8001 44.7 16.8001 44.2 17.0001 43.8L19.6001 37.2L17.0001 12.6H8.6001V9.79999H18.2001C18.9001 9.79999 19.5001 10.3 19.6001 11L22.4001 37.1C22.4001 37.3 22.4001 37.5 22.3001 37.8L20.3001 42.8H48.5001V45.7" fill="white"/>
<path d="M21.3001 38.8L20.7001 36.1L52.6001 29.5V18.2H19.6001V15.4H54.0001C54.8001 15.4 55.4001 16 55.4001 16.8V30.6C55.4001 31.3 54.9001 31.8 54.3001 31.9L21.3001 38.8Z" fill="white"/>
<path d="M49.8999 54C46.8999 54 44.3999 51.5 44.3999 48.5C44.3999 45.5 46.8999 43 49.8999 43C52.8999 43 55.3999 45.5 55.3999 48.5C55.3999 51.5 52.8999 54 49.8999 54ZM49.8999 45.7C48.3999 45.7 47.0999 46.9 47.0999 48.5C47.0999 50.1 48.2999 51.3 49.8999 51.3C51.4999 51.3 52.6999 50.1 52.6999 48.5C52.6999 46.9 51.3999 45.7 49.8999 45.7Z" fill="white"/>
<path d="M16.8999 54C13.8999 54 11.3999 51.5 11.3999 48.5C11.3999 45.5 13.8999 43 16.8999 43C19.8999 43 22.3999 45.5 22.3999 48.5C22.3999 51.5 19.8999 54 16.8999 54ZM16.8999 45.7C15.3999 45.7 14.0999 46.9 14.0999 48.5C14.0999 50.1 15.2999 51.3 16.8999 51.3C18.4999 51.3 19.6999 50.1 19.6999 48.5C19.6999 46.9 18.3999 45.7 16.8999 45.7Z" fill="white"/>
</svg>
