<svg width="50" height="50" viewBox="0 0 50 50" fill="none" xmlns="http://www.w3.org/2000/svg">
<path d="M46.3002 13.9H3.7002C3.4002 13.9 3.2002 13.7 3.2002 13.4V6.59998C3.2002 5.99998 3.6002 5.59998 4.2002 5.59998H45.9002C46.5002 5.59998 46.9002 5.99998 46.9002 6.59998V13.4C46.8002 13.7 46.6002 13.9 46.3002 13.9Z" stroke="#EE1C23" stroke-width="3" stroke-miterlimit="10" stroke-linecap="round"/>
<path d="M42.5 44.4H7.5C6.9 44.4 6.5 44 6.5 43.4V13.9H43.6V43.4C43.5 43.9 43.1 44.4 42.5 44.4Z" stroke="#EE1C23" stroke-width="3" stroke-miterlimit="10" stroke-linecap="round"/>
<path d="M32.3003 26.5H18.2003C16.6003 26.5 15.3003 25.2 15.3003 23.6C15.3003 22 16.6003 20.7 18.2003 20.7H32.3003C33.9003 20.7 35.2003 22 35.2003 23.6C35.2003 25.1 33.9003 26.5 32.3003 26.5Z" stroke="#EE1C23" stroke-width="3" stroke-miterlimit="10" stroke-linecap="round"/>
</svg>
