<svg width="512" height="512" viewBox="0 0 512 512" fill="none" xmlns="http://www.w3.org/2000/svg">
<path d="M458.737 422.218L435.872 134.102C434.447 115.54 418.749 100.999 400.133 100.999H354.97V98.969C354.97 44.397 310.573 0 256.001 0C201.429 0 157.032 44.397 157.032 98.969V100.999H111.87C93.2529 100.999 77.5539 115.539 76.1339 134.063L53.2619 422.257C51.4919 445.332 59.4969 468.305 75.2229 485.283C90.9489 502.261 113.242 512 136.385 512H375.616C398.758 512 421.052 502.262 436.779 485.283C452.505 468.304 460.509 445.332 458.737 422.218ZM187.022 98.969C187.022 60.934 217.967 29.99 256.001 29.99C294.035 29.99 324.98 60.935 324.98 98.969V100.999H187.022V98.969ZM414.776 464.905C404.558 475.935 390.652 482.01 375.616 482.01H136.386C121.35 482.01 107.444 475.935 97.2259 464.905C87.0089 453.874 82.0149 439.542 83.1629 424.59L106.033 136.395C106.265 133.363 108.829 130.989 111.87 130.989H157.032V167.924C157.032 176.205 163.746 182.919 172.027 182.919C180.308 182.919 187.022 176.205 187.022 167.924V130.989H324.98V167.924C324.98 176.205 331.694 182.919 339.975 182.919C348.256 182.919 354.97 176.205 354.97 167.924V130.989H400.133C403.173 130.989 405.737 133.364 405.973 136.435L428.838 424.55C429.988 439.542 424.993 453.873 414.776 464.905Z" fill="#EE1C23"/>
<path d="M323.556 254.285C317.702 248.429 308.207 248.429 302.352 254.285L235.396 321.241L209.65 295.495C203.795 289.639 194.3 289.639 188.444 295.495C182.588 301.351 182.588 310.845 188.444 316.701L224.793 353.05C227.721 355.978 231.559 357.443 235.395 357.443C239.231 357.443 243.07 355.979 245.997 353.05L323.555 275.492C329.412 269.635 329.412 260.141 323.556 254.285Z" fill="#EE1C23"/>
</svg>
